<mxfile host="app.diagrams.net" agent="Mozilla/5.0 (Windows NT 10.0; Win64; x64) AppleWebKit/537.36 (KHTML, like Gecko) Chrome/135.0.0.0 Safari/537.36" version="26.2.12" pages="3">
  <diagram name="Page-1" id="e7e014a7-5840-1c2e-5031-d8a46d1fe8dd">
    <mxGraphModel dx="1408" dy="748" grid="1" gridSize="10" guides="1" tooltips="1" connect="1" arrows="1" fold="1" page="1" pageScale="1" pageWidth="1169" pageHeight="826" background="none" math="0" shadow="0">
      <root>
        <mxCell id="0" />
        <mxCell id="1" parent="0" />
        <mxCell id="2" value="Thread 1" style="swimlane;whiteSpace=wrap" parent="1" vertex="1">
          <mxGeometry x="164.5" y="128" width="280" height="570" as="geometry" />
        </mxCell>
        <mxCell id="5" value="" style="ellipse;shape=startState;fillColor=#000000;strokeColor=#ff0000;" parent="2" vertex="1">
          <mxGeometry x="100" y="40" width="30" height="30" as="geometry" />
        </mxCell>
        <mxCell id="6" value="" style="edgeStyle=elbowEdgeStyle;elbow=horizontal;verticalAlign=bottom;endArrow=open;endSize=8;strokeColor=#FF0000;endFill=1;rounded=0" parent="2" source="5" target="7" edge="1">
          <mxGeometry x="100" y="40" as="geometry">
            <mxPoint x="115" y="110" as="targetPoint" />
          </mxGeometry>
        </mxCell>
        <mxCell id="7" value="idle" style="" parent="2" vertex="1">
          <mxGeometry x="60" y="110" width="110" height="50" as="geometry" />
        </mxCell>
        <mxCell id="8" value="user action" style="" parent="2" vertex="1">
          <mxGeometry x="60" y="220" width="110" height="50" as="geometry" />
        </mxCell>
        <mxCell id="9" value="" style="endArrow=open;strokeColor=#FF0000;endFill=1;rounded=0" parent="2" source="7" target="8" edge="1">
          <mxGeometry relative="1" as="geometry" />
        </mxCell>
        <mxCell id="10" value="post command" style="" parent="2" vertex="1">
          <mxGeometry x="60" y="325" width="110" height="50" as="geometry" />
        </mxCell>
        <mxCell id="11" value="" style="endArrow=open;strokeColor=#FF0000;endFill=1;rounded=0" parent="2" source="8" target="10" edge="1">
          <mxGeometry relative="1" as="geometry" />
        </mxCell>
        <mxCell id="12" value="" style="edgeStyle=elbowEdgeStyle;elbow=horizontal;strokeColor=#FF0000;endArrow=open;endFill=1;rounded=0" parent="2" source="10" target="7" edge="1">
          <mxGeometry width="100" height="100" relative="1" as="geometry">
            <mxPoint x="160" y="290" as="sourcePoint" />
            <mxPoint x="260" y="190" as="targetPoint" />
            <Array as="points">
              <mxPoint x="30" y="250" />
            </Array>
          </mxGeometry>
        </mxCell>
        <mxCell id="3" value="Thread 2" style="swimlane;whiteSpace=wrap" parent="1" vertex="1">
          <mxGeometry x="444.5" y="128" width="280" height="570" as="geometry" />
        </mxCell>
        <mxCell id="13" value="" style="ellipse;shape=startState;fillColor=#000000;strokeColor=#ff0000;" parent="3" vertex="1">
          <mxGeometry x="60" y="40" width="30" height="30" as="geometry" />
        </mxCell>
        <mxCell id="14" value="" style="edgeStyle=elbowEdgeStyle;elbow=horizontal;verticalAlign=bottom;endArrow=open;endSize=8;strokeColor=#FF0000;endFill=1;rounded=0" parent="3" source="13" target="15" edge="1">
          <mxGeometry x="40" y="20" as="geometry">
            <mxPoint x="55" y="90" as="targetPoint" />
          </mxGeometry>
        </mxCell>
        <mxCell id="15" value="idle" style="" parent="3" vertex="1">
          <mxGeometry x="20" y="110" width="110" height="50" as="geometry" />
        </mxCell>
        <mxCell id="16" value="check for &#xa;new commands" style="" parent="3" vertex="1">
          <mxGeometry x="20" y="220" width="110" height="50" as="geometry" />
        </mxCell>
        <mxCell id="17" value="" style="endArrow=open;strokeColor=#FF0000;endFill=1;rounded=0" parent="3" source="15" target="16" edge="1">
          <mxGeometry relative="1" as="geometry" />
        </mxCell>
        <mxCell id="18" value="command queue" style="" parent="3" vertex="1">
          <mxGeometry x="20" y="325" width="110" height="50" as="geometry" />
        </mxCell>
        <mxCell id="19" value="" style="endArrow=open;strokeColor=#FF0000;endFill=1;rounded=0" parent="3" source="16" target="18" edge="1">
          <mxGeometry relative="1" as="geometry" />
        </mxCell>
        <mxCell id="21" value="queue empty" style="rhombus;fillColor=#ffffc0;strokeColor=#ff0000;" parent="3" vertex="1">
          <mxGeometry x="150" y="225" width="80" height="40" as="geometry" />
        </mxCell>
        <mxCell id="22" value="yes" style="edgeStyle=elbowEdgeStyle;elbow=horizontal;align=left;verticalAlign=bottom;endArrow=open;endSize=8;strokeColor=#FF0000;exitX=0.5;exitY=0;endFill=1;rounded=0;entryX=0.75;entryY=0.5;entryPerimeter=0" parent="3" source="21" target="25" edge="1">
          <mxGeometry x="-1" relative="1" as="geometry">
            <mxPoint x="160" y="150" as="targetPoint" />
            <Array as="points">
              <mxPoint x="190" y="180" />
            </Array>
          </mxGeometry>
        </mxCell>
        <mxCell id="23" value="no" style="edgeStyle=elbowEdgeStyle;elbow=horizontal;align=left;verticalAlign=top;endArrow=open;endSize=8;strokeColor=#FF0000;endFill=1;rounded=0" parent="3" source="21" target="30" edge="1">
          <mxGeometry x="-1" relative="1" as="geometry">
            <mxPoint x="190" y="305" as="targetPoint" />
          </mxGeometry>
        </mxCell>
        <mxCell id="24" value="" style="endArrow=open;strokeColor=#FF0000;endFill=1;rounded=0" parent="3" source="16" target="21" edge="1">
          <mxGeometry relative="1" as="geometry" />
        </mxCell>
        <mxCell id="25" value="" style="shape=line;strokeWidth=6;strokeColor=#ff0000;rotation=90" parent="3" vertex="1">
          <mxGeometry x="130" y="127.5" width="50" height="15" as="geometry" />
        </mxCell>
        <mxCell id="26" value="" style="edgeStyle=elbowEdgeStyle;elbow=horizontal;verticalAlign=bottom;endArrow=open;endSize=8;strokeColor=#FF0000;endFill=1;rounded=0" parent="3" source="25" target="15" edge="1">
          <mxGeometry x="130" y="90" as="geometry">
            <mxPoint x="230" y="140" as="targetPoint" />
          </mxGeometry>
        </mxCell>
        <mxCell id="30" value="dispatch&#xa;command&#xa;worker thread" style="" parent="3" vertex="1">
          <mxGeometry x="140" y="325" width="110" height="50" as="geometry" />
        </mxCell>
        <mxCell id="31" value="critical&#xa;section" style="shape=note;whiteSpace=wrap;size=17" parent="3" vertex="1">
          <mxGeometry x="105" y="490" width="100" height="50" as="geometry" />
        </mxCell>
        <mxCell id="32" value="" style="endArrow=none;strokeColor=#FF0000;endFill=0;rounded=0;dashed=1" parent="3" source="18" target="31" edge="1">
          <mxGeometry relative="1" as="geometry" />
        </mxCell>
        <mxCell id="34" value="" style="whiteSpace=wrap;strokeColor=#FF0000;fillColor=#FF0000" parent="3" vertex="1">
          <mxGeometry x="245" y="395" width="5" height="45" as="geometry" />
        </mxCell>
        <mxCell id="41" value="" style="edgeStyle=elbowEdgeStyle;elbow=horizontal;entryX=0;entryY=0.5;strokeColor=#FF0000;endArrow=open;endFill=1;rounded=0" parent="3" source="30" target="34" edge="1">
          <mxGeometry width="100" height="100" relative="1" as="geometry">
            <mxPoint x="60" y="480" as="sourcePoint" />
            <mxPoint x="160" y="380" as="targetPoint" />
            <Array as="points">
              <mxPoint x="195" y="400" />
            </Array>
          </mxGeometry>
        </mxCell>
        <mxCell id="4" value="Thread 3" style="swimlane;whiteSpace=wrap" parent="1" vertex="1">
          <mxGeometry x="724.5" y="128" width="280" height="570" as="geometry" />
        </mxCell>
        <mxCell id="33" value="process&#xa;command" style="" parent="4" vertex="1">
          <mxGeometry x="90" y="405" width="110" height="50" as="geometry" />
        </mxCell>
        <mxCell id="35" value="" style="edgeStyle=elbowEdgeStyle;elbow=horizontal;strokeColor=#FF0000;endArrow=open;endFill=1;rounded=0;entryX=0.25;entryY=0.5;entryPerimeter=0" parent="4" target="25" edge="1">
          <mxGeometry width="100" height="100" relative="1" as="geometry">
            <mxPoint x="-30" y="410" as="sourcePoint" />
            <mxPoint x="-120" y="120" as="targetPoint" />
            <Array as="points">
              <mxPoint x="-10" y="135" />
            </Array>
          </mxGeometry>
        </mxCell>
        <mxCell id="37" value="" style="edgeStyle=none;strokeColor=#FF0000;endArrow=open;endFill=1;rounded=0" parent="4" target="33" edge="1">
          <mxGeometry width="100" height="100" relative="1" as="geometry">
            <mxPoint x="-30" y="429.5" as="sourcePoint" />
            <mxPoint x="90" y="429.5" as="targetPoint" />
          </mxGeometry>
        </mxCell>
        <mxCell id="38" value="" style="ellipse;shape=endState;fillColor=#000000;strokeColor=#ff0000" parent="4" vertex="1">
          <mxGeometry x="130" y="500" width="30" height="30" as="geometry" />
        </mxCell>
        <mxCell id="39" value="" style="endArrow=open;strokeColor=#FF0000;endFill=1;rounded=0" parent="4" source="33" target="38" edge="1">
          <mxGeometry relative="1" as="geometry" />
        </mxCell>
        <mxCell id="20" value="" style="endArrow=open;strokeColor=#FF0000;endFill=1;rounded=0" parent="1" source="10" target="18" edge="1">
          <mxGeometry relative="1" as="geometry" />
        </mxCell>
      </root>
    </mxGraphModel>
  </diagram>
  <diagram id="_dYi-9z2OVGvdDDLalQ_" name="Page-2">
    <mxGraphModel dx="1576" dy="902" grid="1" gridSize="10" guides="1" tooltips="1" connect="1" arrows="1" fold="1" page="1" pageScale="1" pageWidth="850" pageHeight="1100" math="0" shadow="0">
      <root>
        <mxCell id="0" />
        <mxCell id="1" parent="0" />
      </root>
    </mxGraphModel>
  </diagram>
  <diagram id="Yxe4jEkrK396zIYSkwjM" name="Page-3">
    <mxGraphModel dx="1576" dy="902" grid="1" gridSize="10" guides="1" tooltips="1" connect="1" arrows="1" fold="1" page="0" pageScale="1" pageWidth="850" pageHeight="1100" background="#FFFFFF" math="0" shadow="1">
      <root>
        <mxCell id="0" />
        <mxCell id="1" parent="0" />
        <mxCell id="lx2HsS64MiJVuqDDAC6C-1" value="Users" style="swimlane;fontStyle=0;childLayout=stackLayout;horizontal=1;startSize=26;fillColor=none;horizontalStack=0;resizeParent=1;resizeParentMax=0;resizeLast=0;collapsible=1;marginBottom=0;whiteSpace=wrap;html=1;labelBackgroundColor=none;rounded=1;" vertex="1" parent="1">
          <mxGeometry x="90" y="110" width="200" height="246" as="geometry" />
        </mxCell>
        <mxCell id="lx2HsS64MiJVuqDDAC6C-2" value="&lt;div&gt;&lt;span class=&quot;text-sm px-1 rounded-sm !font-mono bg-sunset/10 text-rust dark:bg-dawn/10 dark:text-dawn&quot;&gt;user_id&lt;/span&gt;&lt;/div&gt;" style="text;strokeColor=none;fillColor=none;align=left;verticalAlign=top;spacingLeft=4;spacingRight=4;overflow=hidden;rotatable=0;points=[[0,0.5],[1,0.5]];portConstraint=eastwest;whiteSpace=wrap;html=1;labelBackgroundColor=none;rounded=1;" vertex="1" parent="lx2HsS64MiJVuqDDAC6C-1">
          <mxGeometry y="26" width="200" height="26" as="geometry" />
        </mxCell>
        <mxCell id="lx2HsS64MiJVuqDDAC6C-3" value="&lt;div&gt;&lt;span class=&quot;text-sm px-1 rounded-sm !font-mono bg-sunset/10 text-rust dark:bg-dawn/10 dark:text-dawn&quot;&gt;name&lt;/span&gt;&lt;/div&gt;" style="text;strokeColor=none;fillColor=none;align=left;verticalAlign=top;spacingLeft=4;spacingRight=4;overflow=hidden;rotatable=0;points=[[0,0.5],[1,0.5]];portConstraint=eastwest;whiteSpace=wrap;html=1;labelBackgroundColor=none;rounded=1;" vertex="1" parent="lx2HsS64MiJVuqDDAC6C-1">
          <mxGeometry y="52" width="200" height="26" as="geometry" />
        </mxCell>
        <mxCell id="lx2HsS64MiJVuqDDAC6C-4" value="&lt;div&gt;&lt;span class=&quot;text-sm px-1 rounded-sm !font-mono bg-sunset/10 text-rust dark:bg-dawn/10 dark:text-dawn&quot;&gt;phone&lt;/span&gt;&lt;/div&gt;" style="text;strokeColor=none;fillColor=none;align=left;verticalAlign=top;spacingLeft=4;spacingRight=4;overflow=hidden;rotatable=0;points=[[0,0.5],[1,0.5]];portConstraint=eastwest;whiteSpace=wrap;html=1;labelBackgroundColor=none;rounded=1;" vertex="1" parent="lx2HsS64MiJVuqDDAC6C-1">
          <mxGeometry y="78" width="200" height="32" as="geometry" />
        </mxCell>
        <mxCell id="lx2HsS64MiJVuqDDAC6C-11" value="&lt;div&gt;&lt;span class=&quot;text-sm px-1 rounded-sm !font-mono bg-sunset/10 text-rust dark:bg-dawn/10 dark:text-dawn&quot;&gt;password&lt;/span&gt;&lt;/div&gt;" style="text;strokeColor=none;fillColor=none;align=left;verticalAlign=top;spacingLeft=4;spacingRight=4;overflow=hidden;rotatable=0;points=[[0,0.5],[1,0.5]];portConstraint=eastwest;whiteSpace=wrap;html=1;labelBackgroundColor=none;rounded=1;" vertex="1" parent="lx2HsS64MiJVuqDDAC6C-1">
          <mxGeometry y="110" width="200" height="26" as="geometry" />
        </mxCell>
        <mxCell id="lx2HsS64MiJVuqDDAC6C-12" value="&lt;div&gt;&lt;span class=&quot;text-sm px-1 rounded-sm !font-mono bg-sunset/10 text-rust dark:bg-dawn/10 dark:text-dawn&quot;&gt;address&lt;/span&gt;&lt;/div&gt;" style="text;strokeColor=none;fillColor=none;align=left;verticalAlign=top;spacingLeft=4;spacingRight=4;overflow=hidden;rotatable=0;points=[[0,0.5],[1,0.5]];portConstraint=eastwest;whiteSpace=wrap;html=1;labelBackgroundColor=none;rounded=1;" vertex="1" parent="lx2HsS64MiJVuqDDAC6C-1">
          <mxGeometry y="136" width="200" height="26" as="geometry" />
        </mxCell>
        <mxCell id="lx2HsS64MiJVuqDDAC6C-13" value="&lt;div&gt;&lt;span class=&quot;text-sm px-1 rounded-sm !font-mono bg-sunset/10 text-rust dark:bg-dawn/10 dark:text-dawn&quot;&gt;role&lt;/span&gt;&lt;/div&gt;" style="text;strokeColor=none;fillColor=none;align=left;verticalAlign=top;spacingLeft=4;spacingRight=4;overflow=hidden;rotatable=0;points=[[0,0.5],[1,0.5]];portConstraint=eastwest;whiteSpace=wrap;html=1;labelBackgroundColor=none;rounded=1;" vertex="1" parent="lx2HsS64MiJVuqDDAC6C-1">
          <mxGeometry y="162" width="200" height="26" as="geometry" />
        </mxCell>
        <mxCell id="lx2HsS64MiJVuqDDAC6C-14" value="&lt;div&gt;&lt;span class=&quot;text-sm px-1 rounded-sm !font-mono bg-sunset/10 text-rust dark:bg-dawn/10 dark:text-dawn&quot;&gt;created_at&lt;/span&gt;&lt;/div&gt;" style="text;strokeColor=none;fillColor=none;align=left;verticalAlign=top;spacingLeft=4;spacingRight=4;overflow=hidden;rotatable=0;points=[[0,0.5],[1,0.5]];portConstraint=eastwest;whiteSpace=wrap;html=1;labelBackgroundColor=none;rounded=1;" vertex="1" parent="lx2HsS64MiJVuqDDAC6C-1">
          <mxGeometry y="188" width="200" height="26" as="geometry" />
        </mxCell>
        <mxCell id="lx2HsS64MiJVuqDDAC6C-15" value="&lt;div&gt;&lt;span class=&quot;text-sm px-1 rounded-sm !font-mono bg-sunset/10 text-rust dark:bg-dawn/10 dark:text-dawn&quot;&gt;behavior_data&lt;/span&gt;&lt;/div&gt;" style="text;strokeColor=none;fillColor=none;align=left;verticalAlign=top;spacingLeft=4;spacingRight=4;overflow=hidden;rotatable=0;points=[[0,0.5],[1,0.5]];portConstraint=eastwest;whiteSpace=wrap;html=1;labelBackgroundColor=none;rounded=1;" vertex="1" parent="lx2HsS64MiJVuqDDAC6C-1">
          <mxGeometry y="214" width="200" height="32" as="geometry" />
        </mxCell>
        <mxCell id="lx2HsS64MiJVuqDDAC6C-19" value="Orders" style="swimlane;fontStyle=0;childLayout=stackLayout;horizontal=1;startSize=26;fillColor=none;horizontalStack=0;resizeParent=1;resizeParentMax=0;resizeLast=0;collapsible=1;marginBottom=0;whiteSpace=wrap;html=1;labelBackgroundColor=none;rounded=1;" vertex="1" parent="1">
          <mxGeometry x="320" y="110" width="220" height="470" as="geometry" />
        </mxCell>
        <mxCell id="lx2HsS64MiJVuqDDAC6C-20" value="&lt;div&gt;&lt;span class=&quot;text-sm px-1 rounded-sm !font-mono bg-sunset/10 text-rust dark:bg-dawn/10 dark:text-dawn&quot;&gt;order_id&lt;/span&gt;&lt;/div&gt;" style="text;strokeColor=none;fillColor=none;align=left;verticalAlign=top;spacingLeft=4;spacingRight=4;overflow=hidden;rotatable=0;points=[[0,0.5],[1,0.5]];portConstraint=eastwest;whiteSpace=wrap;html=1;labelBackgroundColor=none;rounded=1;" vertex="1" parent="lx2HsS64MiJVuqDDAC6C-19">
          <mxGeometry y="26" width="220" height="26" as="geometry" />
        </mxCell>
        <mxCell id="lx2HsS64MiJVuqDDAC6C-21" value="&lt;div&gt;&lt;span class=&quot;text-sm px-1 rounded-sm !font-mono bg-sunset/10 text-rust dark:bg-dawn/10 dark:text-dawn&quot;&gt;customer_id&lt;/span&gt;&lt;/div&gt;" style="text;strokeColor=none;fillColor=none;align=left;verticalAlign=top;spacingLeft=4;spacingRight=4;overflow=hidden;rotatable=0;points=[[0,0.5],[1,0.5]];portConstraint=eastwest;whiteSpace=wrap;html=1;labelBackgroundColor=none;rounded=1;" vertex="1" parent="lx2HsS64MiJVuqDDAC6C-19">
          <mxGeometry y="52" width="220" height="26" as="geometry" />
        </mxCell>
        <mxCell id="lx2HsS64MiJVuqDDAC6C-22" value="&lt;div&gt;&lt;span class=&quot;text-sm px-1 rounded-sm !font-mono bg-sunset/10 text-rust dark:bg-dawn/10 dark:text-dawn&quot;&gt;pickup_address&lt;/span&gt;&lt;/div&gt;" style="text;strokeColor=none;fillColor=none;align=left;verticalAlign=top;spacingLeft=4;spacingRight=4;overflow=hidden;rotatable=0;points=[[0,0.5],[1,0.5]];portConstraint=eastwest;whiteSpace=wrap;html=1;labelBackgroundColor=none;rounded=1;" vertex="1" parent="lx2HsS64MiJVuqDDAC6C-19">
          <mxGeometry y="78" width="220" height="32" as="geometry" />
        </mxCell>
        <mxCell id="lx2HsS64MiJVuqDDAC6C-23" value="&lt;div&gt;&lt;span class=&quot;text-sm px-1 rounded-sm !font-mono bg-sunset/10 text-rust dark:bg-dawn/10 dark:text-dawn&quot;&gt;delivery_address&lt;/span&gt;&lt;/div&gt;" style="text;strokeColor=none;fillColor=none;align=left;verticalAlign=top;spacingLeft=4;spacingRight=4;overflow=hidden;rotatable=0;points=[[0,0.5],[1,0.5]];portConstraint=eastwest;whiteSpace=wrap;html=1;labelBackgroundColor=none;rounded=1;" vertex="1" parent="lx2HsS64MiJVuqDDAC6C-19">
          <mxGeometry y="110" width="220" height="26" as="geometry" />
        </mxCell>
        <mxCell id="lx2HsS64MiJVuqDDAC6C-24" value="&lt;div&gt;&lt;span class=&quot;text-sm px-1 rounded-sm !font-mono bg-sunset/10 text-rust dark:bg-dawn/10 dark:text-dawn&quot;&gt;weight&lt;/span&gt;&lt;/div&gt;" style="text;strokeColor=none;fillColor=none;align=left;verticalAlign=top;spacingLeft=4;spacingRight=4;overflow=hidden;rotatable=0;points=[[0,0.5],[1,0.5]];portConstraint=eastwest;whiteSpace=wrap;html=1;labelBackgroundColor=none;rounded=1;" vertex="1" parent="lx2HsS64MiJVuqDDAC6C-19">
          <mxGeometry y="136" width="220" height="26" as="geometry" />
        </mxCell>
        <mxCell id="lx2HsS64MiJVuqDDAC6C-25" value="&lt;div&gt;&lt;span class=&quot;text-sm px-1 rounded-sm !font-mono bg-sunset/10 text-rust dark:bg-dawn/10 dark:text-dawn&quot;&gt;dimensions&lt;/span&gt;&lt;/div&gt;" style="text;strokeColor=none;fillColor=none;align=left;verticalAlign=top;spacingLeft=4;spacingRight=4;overflow=hidden;rotatable=0;points=[[0,0.5],[1,0.5]];portConstraint=eastwest;whiteSpace=wrap;html=1;labelBackgroundColor=none;rounded=1;" vertex="1" parent="lx2HsS64MiJVuqDDAC6C-19">
          <mxGeometry y="162" width="220" height="26" as="geometry" />
        </mxCell>
        <mxCell id="lx2HsS64MiJVuqDDAC6C-26" value="&lt;div&gt;&lt;span class=&quot;text-sm px-1 rounded-sm !font-mono bg-sunset/10 text-rust dark:bg-dawn/10 dark:text-dawn&quot;&gt;service_type&lt;/span&gt;&lt;/div&gt;" style="text;strokeColor=none;fillColor=none;align=left;verticalAlign=top;spacingLeft=4;spacingRight=4;overflow=hidden;rotatable=0;points=[[0,0.5],[1,0.5]];portConstraint=eastwest;whiteSpace=wrap;html=1;labelBackgroundColor=none;rounded=1;" vertex="1" parent="lx2HsS64MiJVuqDDAC6C-19">
          <mxGeometry y="188" width="220" height="26" as="geometry" />
        </mxCell>
        <mxCell id="lx2HsS64MiJVuqDDAC6C-27" value="&lt;div&gt;&lt;span class=&quot;text-sm px-1 rounded-sm !font-mono bg-sunset/10 text-rust dark:bg-dawn/10 dark:text-dawn&quot;&gt;status&lt;/span&gt;&lt;/div&gt;" style="text;strokeColor=none;fillColor=none;align=left;verticalAlign=top;spacingLeft=4;spacingRight=4;overflow=hidden;rotatable=0;points=[[0,0.5],[1,0.5]];portConstraint=eastwest;whiteSpace=wrap;html=1;labelBackgroundColor=none;rounded=1;" vertex="1" parent="lx2HsS64MiJVuqDDAC6C-19">
          <mxGeometry y="214" width="220" height="32" as="geometry" />
        </mxCell>
        <mxCell id="lx2HsS64MiJVuqDDAC6C-28" value="&lt;div&gt;&lt;span class=&quot;text-sm px-1 rounded-sm !font-mono bg-sunset/10 text-rust dark:bg-dawn/10 dark:text-dawn&quot;&gt;total_fee&lt;/span&gt;&lt;/div&gt;" style="text;strokeColor=none;fillColor=none;align=left;verticalAlign=top;spacingLeft=4;spacingRight=4;overflow=hidden;rotatable=0;points=[[0,0.5],[1,0.5]];portConstraint=eastwest;whiteSpace=wrap;html=1;labelBackgroundColor=none;rounded=1;" vertex="1" parent="lx2HsS64MiJVuqDDAC6C-19">
          <mxGeometry y="246" width="220" height="32" as="geometry" />
        </mxCell>
        <mxCell id="lx2HsS64MiJVuqDDAC6C-29" value="&lt;div&gt;&lt;span class=&quot;text-sm px-1 rounded-sm !font-mono bg-sunset/10 text-rust dark:bg-dawn/10 dark:text-dawn&quot;&gt;coupon_id&lt;/span&gt;&lt;/div&gt;" style="text;strokeColor=none;fillColor=none;align=left;verticalAlign=top;spacingLeft=4;spacingRight=4;overflow=hidden;rotatable=0;points=[[0,0.5],[1,0.5]];portConstraint=eastwest;whiteSpace=wrap;html=1;labelBackgroundColor=none;rounded=1;" vertex="1" parent="lx2HsS64MiJVuqDDAC6C-19">
          <mxGeometry y="278" width="220" height="32" as="geometry" />
        </mxCell>
        <mxCell id="lx2HsS64MiJVuqDDAC6C-30" value="&lt;div&gt;&lt;span class=&quot;text-sm px-1 rounded-sm !font-mono bg-sunset/10 text-rust dark:bg-dawn/10 dark:text-dawn&quot;&gt;is_suburban&lt;/span&gt;&lt;/div&gt;" style="text;strokeColor=none;fillColor=none;align=left;verticalAlign=top;spacingLeft=4;spacingRight=4;overflow=hidden;rotatable=0;points=[[0,0.5],[1,0.5]];portConstraint=eastwest;whiteSpace=wrap;html=1;labelBackgroundColor=none;rounded=1;" vertex="1" parent="lx2HsS64MiJVuqDDAC6C-19">
          <mxGeometry y="310" width="220" height="32" as="geometry" />
        </mxCell>
        <mxCell id="lx2HsS64MiJVuqDDAC6C-31" value="&lt;div&gt;&lt;span class=&quot;text-sm px-1 rounded-sm !font-mono bg-sunset/10 text-rust dark:bg-dawn/10 dark:text-dawn&quot;&gt;created_at&lt;/span&gt;&lt;/div&gt;" style="text;strokeColor=none;fillColor=none;align=left;verticalAlign=top;spacingLeft=4;spacingRight=4;overflow=hidden;rotatable=0;points=[[0,0.5],[1,0.5]];portConstraint=eastwest;whiteSpace=wrap;html=1;labelBackgroundColor=none;rounded=1;" vertex="1" parent="lx2HsS64MiJVuqDDAC6C-19">
          <mxGeometry y="342" width="220" height="32" as="geometry" />
        </mxCell>
        <mxCell id="lx2HsS64MiJVuqDDAC6C-32" value="&lt;div&gt;&lt;span class=&quot;text-sm px-1 rounded-sm !font-mono bg-sunset/10 text-rust dark:bg-dawn/10 dark:text-dawn&quot;&gt;delivered_at&lt;/span&gt;&lt;/div&gt;" style="text;strokeColor=none;fillColor=none;align=left;verticalAlign=top;spacingLeft=4;spacingRight=4;overflow=hidden;rotatable=0;points=[[0,0.5],[1,0.5]];portConstraint=eastwest;whiteSpace=wrap;html=1;labelBackgroundColor=none;rounded=1;" vertex="1" parent="lx2HsS64MiJVuqDDAC6C-19">
          <mxGeometry y="374" width="220" height="32" as="geometry" />
        </mxCell>
        <mxCell id="lx2HsS64MiJVuqDDAC6C-33" value="&lt;div&gt;&lt;span class=&quot;text-sm px-1 rounded-sm !font-mono bg-sunset/10 text-rust dark:bg-dawn/10 dark:text-dawn&quot;&gt;estimated_time&lt;/span&gt;&lt;/div&gt;" style="text;strokeColor=none;fillColor=none;align=left;verticalAlign=top;spacingLeft=4;spacingRight=4;overflow=hidden;rotatable=0;points=[[0,0.5],[1,0.5]];portConstraint=eastwest;whiteSpace=wrap;html=1;labelBackgroundColor=none;rounded=1;" vertex="1" parent="lx2HsS64MiJVuqDDAC6C-19">
          <mxGeometry y="406" width="220" height="32" as="geometry" />
        </mxCell>
        <mxCell id="lx2HsS64MiJVuqDDAC6C-34" value="&lt;div&gt;&lt;span class=&quot;text-sm px-1 rounded-sm !font-mono bg-sunset/10 text-rust dark:bg-dawn/10 dark:text-dawn&quot;&gt;pickup_time_suggestion&lt;/span&gt;&lt;/div&gt;" style="text;strokeColor=none;fillColor=none;align=left;verticalAlign=top;spacingLeft=4;spacingRight=4;overflow=hidden;rotatable=0;points=[[0,0.5],[1,0.5]];portConstraint=eastwest;whiteSpace=wrap;html=1;labelBackgroundColor=none;rounded=1;" vertex="1" parent="lx2HsS64MiJVuqDDAC6C-19">
          <mxGeometry y="438" width="220" height="32" as="geometry" />
        </mxCell>
        <mxCell id="lx2HsS64MiJVuqDDAC6C-35" value="Shippers" style="swimlane;fontStyle=0;childLayout=stackLayout;horizontal=1;startSize=26;fillColor=none;horizontalStack=0;resizeParent=1;resizeParentMax=0;resizeLast=0;collapsible=1;marginBottom=0;whiteSpace=wrap;html=1;labelBackgroundColor=none;rounded=1;" vertex="1" parent="1">
          <mxGeometry x="90" y="380" width="200" height="278" as="geometry" />
        </mxCell>
        <mxCell id="lx2HsS64MiJVuqDDAC6C-36" value="&lt;div&gt;&lt;span class=&quot;text-sm px-1 rounded-sm !font-mono bg-sunset/10 text-rust dark:bg-dawn/10 dark:text-dawn&quot;&gt;shipper_id&lt;/span&gt;&lt;/div&gt;" style="text;strokeColor=none;fillColor=none;align=left;verticalAlign=top;spacingLeft=4;spacingRight=4;overflow=hidden;rotatable=0;points=[[0,0.5],[1,0.5]];portConstraint=eastwest;whiteSpace=wrap;html=1;labelBackgroundColor=none;rounded=1;" vertex="1" parent="lx2HsS64MiJVuqDDAC6C-35">
          <mxGeometry y="26" width="200" height="26" as="geometry" />
        </mxCell>
        <mxCell id="lx2HsS64MiJVuqDDAC6C-37" value="&lt;div&gt;&lt;span class=&quot;text-sm px-1 rounded-sm !font-mono bg-sunset/10 text-rust dark:bg-dawn/10 dark:text-dawn&quot;&gt;user_id&lt;/span&gt;&lt;/div&gt;" style="text;strokeColor=none;fillColor=none;align=left;verticalAlign=top;spacingLeft=4;spacingRight=4;overflow=hidden;rotatable=0;points=[[0,0.5],[1,0.5]];portConstraint=eastwest;whiteSpace=wrap;html=1;labelBackgroundColor=none;rounded=1;" vertex="1" parent="lx2HsS64MiJVuqDDAC6C-35">
          <mxGeometry y="52" width="200" height="26" as="geometry" />
        </mxCell>
        <mxCell id="lx2HsS64MiJVuqDDAC6C-38" value="&lt;div&gt;&lt;span class=&quot;text-sm px-1 rounded-sm !font-mono bg-sunset/10 text-rust dark:bg-dawn/10 dark:text-dawn&quot;&gt;license_number&lt;/span&gt;&lt;/div&gt;" style="text;strokeColor=none;fillColor=none;align=left;verticalAlign=top;spacingLeft=4;spacingRight=4;overflow=hidden;rotatable=0;points=[[0,0.5],[1,0.5]];portConstraint=eastwest;whiteSpace=wrap;html=1;labelBackgroundColor=none;rounded=1;" vertex="1" parent="lx2HsS64MiJVuqDDAC6C-35">
          <mxGeometry y="78" width="200" height="32" as="geometry" />
        </mxCell>
        <mxCell id="lx2HsS64MiJVuqDDAC6C-39" value="&lt;div&gt;&lt;span class=&quot;text-sm px-1 rounded-sm !font-mono bg-sunset/10 text-rust dark:bg-dawn/10 dark:text-dawn&quot;&gt;vehicle_type&lt;/span&gt;&lt;/div&gt;" style="text;strokeColor=none;fillColor=none;align=left;verticalAlign=top;spacingLeft=4;spacingRight=4;overflow=hidden;rotatable=0;points=[[0,0.5],[1,0.5]];portConstraint=eastwest;whiteSpace=wrap;html=1;labelBackgroundColor=none;rounded=1;" vertex="1" parent="lx2HsS64MiJVuqDDAC6C-35">
          <mxGeometry y="110" width="200" height="26" as="geometry" />
        </mxCell>
        <mxCell id="lx2HsS64MiJVuqDDAC6C-40" value="&lt;div&gt;&lt;span class=&quot;text-sm px-1 rounded-sm !font-mono bg-sunset/10 text-rust dark:bg-dawn/10 dark:text-dawn&quot;&gt;current_location&lt;/span&gt;&lt;/div&gt;" style="text;strokeColor=none;fillColor=none;align=left;verticalAlign=top;spacingLeft=4;spacingRight=4;overflow=hidden;rotatable=0;points=[[0,0.5],[1,0.5]];portConstraint=eastwest;whiteSpace=wrap;html=1;labelBackgroundColor=none;rounded=1;" vertex="1" parent="lx2HsS64MiJVuqDDAC6C-35">
          <mxGeometry y="136" width="200" height="26" as="geometry" />
        </mxCell>
        <mxCell id="lx2HsS64MiJVuqDDAC6C-41" value="&lt;div&gt;&lt;span class=&quot;text-sm px-1 rounded-sm !font-mono bg-sunset/10 text-rust dark:bg-dawn/10 dark:text-dawn&quot;&gt;status&lt;/span&gt;&lt;/div&gt;" style="text;strokeColor=none;fillColor=none;align=left;verticalAlign=top;spacingLeft=4;spacingRight=4;overflow=hidden;rotatable=0;points=[[0,0.5],[1,0.5]];portConstraint=eastwest;whiteSpace=wrap;html=1;labelBackgroundColor=none;rounded=1;" vertex="1" parent="lx2HsS64MiJVuqDDAC6C-35">
          <mxGeometry y="162" width="200" height="26" as="geometry" />
        </mxCell>
        <mxCell id="lx2HsS64MiJVuqDDAC6C-42" value="&lt;div&gt;&lt;span class=&quot;text-sm px-1 rounded-sm !font-mono bg-sunset/10 text-rust dark:bg-dawn/10 dark:text-dawn&quot;&gt;total_earnings&lt;/span&gt;&lt;/div&gt;" style="text;strokeColor=none;fillColor=none;align=left;verticalAlign=top;spacingLeft=4;spacingRight=4;overflow=hidden;rotatable=0;points=[[0,0.5],[1,0.5]];portConstraint=eastwest;whiteSpace=wrap;html=1;labelBackgroundColor=none;rounded=1;" vertex="1" parent="lx2HsS64MiJVuqDDAC6C-35">
          <mxGeometry y="188" width="200" height="26" as="geometry" />
        </mxCell>
        <mxCell id="lx2HsS64MiJVuqDDAC6C-43" value="&lt;div&gt;&lt;span class=&quot;text-sm px-1 rounded-sm !font-mono bg-sunset/10 text-rust dark:bg-dawn/10 dark:text-dawn&quot;&gt;rating_score&lt;/span&gt;&lt;/div&gt;" style="text;strokeColor=none;fillColor=none;align=left;verticalAlign=top;spacingLeft=4;spacingRight=4;overflow=hidden;rotatable=0;points=[[0,0.5],[1,0.5]];portConstraint=eastwest;whiteSpace=wrap;html=1;labelBackgroundColor=none;rounded=1;" vertex="1" parent="lx2HsS64MiJVuqDDAC6C-35">
          <mxGeometry y="214" width="200" height="32" as="geometry" />
        </mxCell>
        <mxCell id="lx2HsS64MiJVuqDDAC6C-44" value="&lt;div&gt;&lt;span class=&quot;text-sm px-1 rounded-sm !font-mono bg-sunset/10 text-rust dark:bg-dawn/10 dark:text-dawn&quot;&gt;rating_count&lt;/span&gt;&lt;/div&gt;" style="text;strokeColor=none;fillColor=none;align=left;verticalAlign=top;spacingLeft=4;spacingRight=4;overflow=hidden;rotatable=0;points=[[0,0.5],[1,0.5]];portConstraint=eastwest;whiteSpace=wrap;html=1;labelBackgroundColor=none;rounded=1;" vertex="1" parent="lx2HsS64MiJVuqDDAC6C-35">
          <mxGeometry y="246" width="200" height="32" as="geometry" />
        </mxCell>
        <mxCell id="lx2HsS64MiJVuqDDAC6C-45" value="Warehouse" style="swimlane;fontStyle=0;childLayout=stackLayout;horizontal=1;startSize=26;fillColor=none;horizontalStack=0;resizeParent=1;resizeParentMax=0;resizeLast=0;collapsible=1;marginBottom=0;whiteSpace=wrap;html=1;labelBackgroundColor=none;rounded=1;" vertex="1" parent="1">
          <mxGeometry x="600" y="100" width="200" height="162" as="geometry" />
        </mxCell>
        <mxCell id="lx2HsS64MiJVuqDDAC6C-46" value="&lt;div&gt;&lt;span class=&quot;text-sm px-1 rounded-sm !font-mono bg-sunset/10 text-rust dark:bg-dawn/10 dark:text-dawn&quot;&gt;warehouse_id&lt;/span&gt;&lt;/div&gt;" style="text;strokeColor=none;fillColor=none;align=left;verticalAlign=top;spacingLeft=4;spacingRight=4;overflow=hidden;rotatable=0;points=[[0,0.5],[1,0.5]];portConstraint=eastwest;whiteSpace=wrap;html=1;labelBackgroundColor=none;rounded=1;" vertex="1" parent="lx2HsS64MiJVuqDDAC6C-45">
          <mxGeometry y="26" width="200" height="26" as="geometry" />
        </mxCell>
        <mxCell id="lx2HsS64MiJVuqDDAC6C-47" value="&lt;div&gt;&lt;span class=&quot;text-sm px-1 rounded-sm !font-mono bg-sunset/10 text-rust dark:bg-dawn/10 dark:text-dawn&quot;&gt;location&lt;/span&gt;&lt;/div&gt;" style="text;strokeColor=none;fillColor=none;align=left;verticalAlign=top;spacingLeft=4;spacingRight=4;overflow=hidden;rotatable=0;points=[[0,0.5],[1,0.5]];portConstraint=eastwest;whiteSpace=wrap;html=1;labelBackgroundColor=none;rounded=1;" vertex="1" parent="lx2HsS64MiJVuqDDAC6C-45">
          <mxGeometry y="52" width="200" height="26" as="geometry" />
        </mxCell>
        <mxCell id="lx2HsS64MiJVuqDDAC6C-48" value="&lt;div&gt;&lt;span class=&quot;text-sm px-1 rounded-sm !font-mono bg-sunset/10 text-rust dark:bg-dawn/10 dark:text-dawn&quot;&gt;capacity&lt;/span&gt;&lt;/div&gt;" style="text;strokeColor=none;fillColor=none;align=left;verticalAlign=top;spacingLeft=4;spacingRight=4;overflow=hidden;rotatable=0;points=[[0,0.5],[1,0.5]];portConstraint=eastwest;whiteSpace=wrap;html=1;labelBackgroundColor=none;rounded=1;" vertex="1" parent="lx2HsS64MiJVuqDDAC6C-45">
          <mxGeometry y="78" width="200" height="32" as="geometry" />
        </mxCell>
        <mxCell id="lx2HsS64MiJVuqDDAC6C-49" value="&lt;div&gt;&lt;span class=&quot;text-sm px-1 rounded-sm !font-mono bg-sunset/10 text-rust dark:bg-dawn/10 dark:text-dawn&quot;&gt;current_stock&lt;/span&gt;&lt;/div&gt;" style="text;strokeColor=none;fillColor=none;align=left;verticalAlign=top;spacingLeft=4;spacingRight=4;overflow=hidden;rotatable=0;points=[[0,0.5],[1,0.5]];portConstraint=eastwest;whiteSpace=wrap;html=1;labelBackgroundColor=none;rounded=1;" vertex="1" parent="lx2HsS64MiJVuqDDAC6C-45">
          <mxGeometry y="110" width="200" height="26" as="geometry" />
        </mxCell>
        <mxCell id="lx2HsS64MiJVuqDDAC6C-50" value="&lt;div&gt;&lt;span class=&quot;text-sm px-1 rounded-sm !font-mono bg-sunset/10 text-rust dark:bg-dawn/10 dark:text-dawn&quot;&gt;manager_id&lt;/span&gt;&lt;/div&gt;" style="text;strokeColor=none;fillColor=none;align=left;verticalAlign=top;spacingLeft=4;spacingRight=4;overflow=hidden;rotatable=0;points=[[0,0.5],[1,0.5]];portConstraint=eastwest;whiteSpace=wrap;html=1;labelBackgroundColor=none;rounded=1;" vertex="1" parent="lx2HsS64MiJVuqDDAC6C-45">
          <mxGeometry y="136" width="200" height="26" as="geometry" />
        </mxCell>
        <mxCell id="lx2HsS64MiJVuqDDAC6C-54" value="Items" style="swimlane;fontStyle=0;childLayout=stackLayout;horizontal=1;startSize=26;fillColor=none;horizontalStack=0;resizeParent=1;resizeParentMax=0;resizeLast=0;collapsible=1;marginBottom=0;whiteSpace=wrap;html=1;labelBackgroundColor=none;rounded=1;" vertex="1" parent="1">
          <mxGeometry x="600" y="280" width="200" height="214" as="geometry" />
        </mxCell>
        <mxCell id="lx2HsS64MiJVuqDDAC6C-55" value="&lt;div&gt;&lt;span class=&quot;text-sm px-1 rounded-sm !font-mono bg-sunset/10 text-rust dark:bg-dawn/10 dark:text-dawn&quot;&gt;item_id&lt;/span&gt;&lt;/div&gt;" style="text;strokeColor=none;fillColor=none;align=left;verticalAlign=top;spacingLeft=4;spacingRight=4;overflow=hidden;rotatable=0;points=[[0,0.5],[1,0.5]];portConstraint=eastwest;whiteSpace=wrap;html=1;labelBackgroundColor=none;rounded=1;" vertex="1" parent="lx2HsS64MiJVuqDDAC6C-54">
          <mxGeometry y="26" width="200" height="26" as="geometry" />
        </mxCell>
        <mxCell id="lx2HsS64MiJVuqDDAC6C-56" value="&lt;div&gt;&lt;span class=&quot;text-sm px-1 rounded-sm !font-mono bg-sunset/10 text-rust dark:bg-dawn/10 dark:text-dawn&quot;&gt;order_id&lt;/span&gt;&lt;/div&gt;" style="text;strokeColor=none;fillColor=none;align=left;verticalAlign=top;spacingLeft=4;spacingRight=4;overflow=hidden;rotatable=0;points=[[0,0.5],[1,0.5]];portConstraint=eastwest;whiteSpace=wrap;html=1;labelBackgroundColor=none;rounded=1;" vertex="1" parent="lx2HsS64MiJVuqDDAC6C-54">
          <mxGeometry y="52" width="200" height="26" as="geometry" />
        </mxCell>
        <mxCell id="lx2HsS64MiJVuqDDAC6C-57" value="&lt;div&gt;&lt;span class=&quot;text-sm px-1 rounded-sm !font-mono bg-sunset/10 text-rust dark:bg-dawn/10 dark:text-dawn&quot;&gt;warehouse_id&lt;/span&gt;&lt;/div&gt;" style="text;strokeColor=none;fillColor=none;align=left;verticalAlign=top;spacingLeft=4;spacingRight=4;overflow=hidden;rotatable=0;points=[[0,0.5],[1,0.5]];portConstraint=eastwest;whiteSpace=wrap;html=1;labelBackgroundColor=none;rounded=1;" vertex="1" parent="lx2HsS64MiJVuqDDAC6C-54">
          <mxGeometry y="78" width="200" height="32" as="geometry" />
        </mxCell>
        <mxCell id="lx2HsS64MiJVuqDDAC6C-58" value="&lt;div&gt;&lt;span class=&quot;text-sm px-1 rounded-sm !font-mono bg-sunset/10 text-rust dark:bg-dawn/10 dark:text-dawn&quot;&gt;description&lt;/span&gt;&lt;/div&gt;" style="text;strokeColor=none;fillColor=none;align=left;verticalAlign=top;spacingLeft=4;spacingRight=4;overflow=hidden;rotatable=0;points=[[0,0.5],[1,0.5]];portConstraint=eastwest;whiteSpace=wrap;html=1;labelBackgroundColor=none;rounded=1;" vertex="1" parent="lx2HsS64MiJVuqDDAC6C-54">
          <mxGeometry y="110" width="200" height="26" as="geometry" />
        </mxCell>
        <mxCell id="lx2HsS64MiJVuqDDAC6C-59" value="&lt;div&gt;&lt;span class=&quot;text-sm px-1 rounded-sm !font-mono bg-sunset/10 text-rust dark:bg-dawn/10 dark:text-dawn&quot;&gt;quantity&lt;/span&gt;&lt;/div&gt;" style="text;strokeColor=none;fillColor=none;align=left;verticalAlign=top;spacingLeft=4;spacingRight=4;overflow=hidden;rotatable=0;points=[[0,0.5],[1,0.5]];portConstraint=eastwest;whiteSpace=wrap;html=1;labelBackgroundColor=none;rounded=1;" vertex="1" parent="lx2HsS64MiJVuqDDAC6C-54">
          <mxGeometry y="136" width="200" height="26" as="geometry" />
        </mxCell>
        <mxCell id="lx2HsS64MiJVuqDDAC6C-60" value="&lt;div&gt;&lt;span class=&quot;text-sm px-1 rounded-sm !font-mono bg-sunset/10 text-rust dark:bg-dawn/10 dark:text-dawn&quot;&gt;status&lt;/span&gt;&lt;/div&gt;" style="text;strokeColor=none;fillColor=none;align=left;verticalAlign=top;spacingLeft=4;spacingRight=4;overflow=hidden;rotatable=0;points=[[0,0.5],[1,0.5]];portConstraint=eastwest;whiteSpace=wrap;html=1;labelBackgroundColor=none;rounded=1;" vertex="1" parent="lx2HsS64MiJVuqDDAC6C-54">
          <mxGeometry y="162" width="200" height="26" as="geometry" />
        </mxCell>
        <mxCell id="lx2HsS64MiJVuqDDAC6C-61" value="&lt;div&gt;&lt;span class=&quot;text-sm px-1 rounded-sm !font-mono bg-sunset/10 text-rust dark:bg-dawn/10 dark:text-dawn&quot;&gt;image_analysis&lt;/span&gt;&lt;/div&gt;" style="text;strokeColor=none;fillColor=none;align=left;verticalAlign=top;spacingLeft=4;spacingRight=4;overflow=hidden;rotatable=0;points=[[0,0.5],[1,0.5]];portConstraint=eastwest;whiteSpace=wrap;html=1;labelBackgroundColor=none;rounded=1;" vertex="1" parent="lx2HsS64MiJVuqDDAC6C-54">
          <mxGeometry y="188" width="200" height="26" as="geometry" />
        </mxCell>
        <mxCell id="lx2HsS64MiJVuqDDAC6C-63" value="Coupons" style="swimlane;fontStyle=0;childLayout=stackLayout;horizontal=1;startSize=26;fillColor=none;horizontalStack=0;resizeParent=1;resizeParentMax=0;resizeLast=0;collapsible=1;marginBottom=0;whiteSpace=wrap;html=1;labelBackgroundColor=none;rounded=1;" vertex="1" parent="1">
          <mxGeometry x="330" y="630" width="200" height="278" as="geometry" />
        </mxCell>
        <mxCell id="lx2HsS64MiJVuqDDAC6C-64" value="&lt;div&gt;&lt;span class=&quot;text-sm px-1 rounded-sm !font-mono bg-sunset/10 text-rust dark:bg-dawn/10 dark:text-dawn&quot;&gt;coupon_id&lt;/span&gt;&lt;/div&gt;" style="text;strokeColor=none;fillColor=none;align=left;verticalAlign=top;spacingLeft=4;spacingRight=4;overflow=hidden;rotatable=0;points=[[0,0.5],[1,0.5]];portConstraint=eastwest;whiteSpace=wrap;html=1;labelBackgroundColor=none;rounded=1;" vertex="1" parent="lx2HsS64MiJVuqDDAC6C-63">
          <mxGeometry y="26" width="200" height="26" as="geometry" />
        </mxCell>
        <mxCell id="lx2HsS64MiJVuqDDAC6C-65" value="&lt;div&gt;&lt;span class=&quot;text-sm px-1 rounded-sm !font-mono bg-sunset/10 text-rust dark:bg-dawn/10 dark:text-dawn&quot;&gt;code&lt;/span&gt;&lt;/div&gt;" style="text;strokeColor=none;fillColor=none;align=left;verticalAlign=top;spacingLeft=4;spacingRight=4;overflow=hidden;rotatable=0;points=[[0,0.5],[1,0.5]];portConstraint=eastwest;whiteSpace=wrap;html=1;labelBackgroundColor=none;rounded=1;" vertex="1" parent="lx2HsS64MiJVuqDDAC6C-63">
          <mxGeometry y="52" width="200" height="26" as="geometry" />
        </mxCell>
        <mxCell id="lx2HsS64MiJVuqDDAC6C-66" value="&lt;div&gt;&lt;span class=&quot;text-sm px-1 rounded-sm !font-mono bg-sunset/10 text-rust dark:bg-dawn/10 dark:text-dawn&quot;&gt;discount&lt;/span&gt;&lt;/div&gt;" style="text;strokeColor=none;fillColor=none;align=left;verticalAlign=top;spacingLeft=4;spacingRight=4;overflow=hidden;rotatable=0;points=[[0,0.5],[1,0.5]];portConstraint=eastwest;whiteSpace=wrap;html=1;labelBackgroundColor=none;rounded=1;" vertex="1" parent="lx2HsS64MiJVuqDDAC6C-63">
          <mxGeometry y="78" width="200" height="32" as="geometry" />
        </mxCell>
        <mxCell id="lx2HsS64MiJVuqDDAC6C-67" value="&lt;div&gt;&lt;span class=&quot;text-sm px-1 rounded-sm !font-mono bg-sunset/10 text-rust dark:bg-dawn/10 dark:text-dawn&quot;&gt;min_order_value&lt;/span&gt;&lt;/div&gt;" style="text;strokeColor=none;fillColor=none;align=left;verticalAlign=top;spacingLeft=4;spacingRight=4;overflow=hidden;rotatable=0;points=[[0,0.5],[1,0.5]];portConstraint=eastwest;whiteSpace=wrap;html=1;labelBackgroundColor=none;rounded=1;" vertex="1" parent="lx2HsS64MiJVuqDDAC6C-63">
          <mxGeometry y="110" width="200" height="26" as="geometry" />
        </mxCell>
        <mxCell id="lx2HsS64MiJVuqDDAC6C-68" value="&lt;div&gt;&lt;span class=&quot;text-sm px-1 rounded-sm !font-mono bg-sunset/10 text-rust dark:bg-dawn/10 dark:text-dawn&quot;&gt;valid_from&lt;/span&gt;&lt;/div&gt;" style="text;strokeColor=none;fillColor=none;align=left;verticalAlign=top;spacingLeft=4;spacingRight=4;overflow=hidden;rotatable=0;points=[[0,0.5],[1,0.5]];portConstraint=eastwest;whiteSpace=wrap;html=1;labelBackgroundColor=none;rounded=1;" vertex="1" parent="lx2HsS64MiJVuqDDAC6C-63">
          <mxGeometry y="136" width="200" height="26" as="geometry" />
        </mxCell>
        <mxCell id="lx2HsS64MiJVuqDDAC6C-69" value="&lt;div&gt;&lt;span class=&quot;text-sm px-1 rounded-sm !font-mono bg-sunset/10 text-rust dark:bg-dawn/10 dark:text-dawn&quot;&gt;valid_to&lt;/span&gt;&lt;/div&gt;" style="text;strokeColor=none;fillColor=none;align=left;verticalAlign=top;spacingLeft=4;spacingRight=4;overflow=hidden;rotatable=0;points=[[0,0.5],[1,0.5]];portConstraint=eastwest;whiteSpace=wrap;html=1;labelBackgroundColor=none;rounded=1;" vertex="1" parent="lx2HsS64MiJVuqDDAC6C-63">
          <mxGeometry y="162" width="200" height="26" as="geometry" />
        </mxCell>
        <mxCell id="lx2HsS64MiJVuqDDAC6C-70" value="&lt;div&gt;&lt;span class=&quot;text-sm px-1 rounded-sm !font-mono bg-sunset/10 text-rust dark:bg-dawn/10 dark:text-dawn&quot;&gt;max_uses&lt;/span&gt;&lt;/div&gt;" style="text;strokeColor=none;fillColor=none;align=left;verticalAlign=top;spacingLeft=4;spacingRight=4;overflow=hidden;rotatable=0;points=[[0,0.5],[1,0.5]];portConstraint=eastwest;whiteSpace=wrap;html=1;labelBackgroundColor=none;rounded=1;" vertex="1" parent="lx2HsS64MiJVuqDDAC6C-63">
          <mxGeometry y="188" width="200" height="26" as="geometry" />
        </mxCell>
        <mxCell id="lx2HsS64MiJVuqDDAC6C-71" value="&lt;div&gt;&lt;span class=&quot;text-sm px-1 rounded-sm !font-mono bg-sunset/10 text-rust dark:bg-dawn/10 dark:text-dawn&quot;&gt;used_count&lt;/span&gt;&lt;/div&gt;" style="text;strokeColor=none;fillColor=none;align=left;verticalAlign=top;spacingLeft=4;spacingRight=4;overflow=hidden;rotatable=0;points=[[0,0.5],[1,0.5]];portConstraint=eastwest;whiteSpace=wrap;html=1;labelBackgroundColor=none;rounded=1;" vertex="1" parent="lx2HsS64MiJVuqDDAC6C-63">
          <mxGeometry y="214" width="200" height="32" as="geometry" />
        </mxCell>
        <mxCell id="lx2HsS64MiJVuqDDAC6C-72" value="&lt;div&gt;&lt;span class=&quot;text-sm px-1 rounded-sm !font-mono bg-sunset/10 text-rust dark:bg-dawn/10 dark:text-dawn&quot;&gt;applied_users&lt;/span&gt;&lt;/div&gt;" style="text;strokeColor=none;fillColor=none;align=left;verticalAlign=top;spacingLeft=4;spacingRight=4;overflow=hidden;rotatable=0;points=[[0,0.5],[1,0.5]];portConstraint=eastwest;whiteSpace=wrap;html=1;labelBackgroundColor=none;rounded=1;" vertex="1" parent="lx2HsS64MiJVuqDDAC6C-63">
          <mxGeometry y="246" width="200" height="32" as="geometry" />
        </mxCell>
        <mxCell id="lx2HsS64MiJVuqDDAC6C-73" value="Payments" style="swimlane;fontStyle=0;childLayout=stackLayout;horizontal=1;startSize=26;fillColor=none;horizontalStack=0;resizeParent=1;resizeParentMax=0;resizeLast=0;collapsible=1;marginBottom=0;whiteSpace=wrap;html=1;labelBackgroundColor=none;rounded=1;" vertex="1" parent="1">
          <mxGeometry x="90" y="714" width="200" height="188" as="geometry" />
        </mxCell>
        <mxCell id="lx2HsS64MiJVuqDDAC6C-74" value="&lt;div&gt;&lt;span class=&quot;text-sm px-1 rounded-sm !font-mono bg-sunset/10 text-rust dark:bg-dawn/10 dark:text-dawn&quot;&gt;payment_id&lt;/span&gt;&lt;/div&gt;" style="text;strokeColor=none;fillColor=none;align=left;verticalAlign=top;spacingLeft=4;spacingRight=4;overflow=hidden;rotatable=0;points=[[0,0.5],[1,0.5]];portConstraint=eastwest;whiteSpace=wrap;html=1;labelBackgroundColor=none;rounded=1;" vertex="1" parent="lx2HsS64MiJVuqDDAC6C-73">
          <mxGeometry y="26" width="200" height="26" as="geometry" />
        </mxCell>
        <mxCell id="lx2HsS64MiJVuqDDAC6C-75" value="&lt;div&gt;&lt;span class=&quot;text-sm px-1 rounded-sm !font-mono bg-sunset/10 text-rust dark:bg-dawn/10 dark:text-dawn&quot;&gt;order_id&lt;/span&gt;&lt;/div&gt;" style="text;strokeColor=none;fillColor=none;align=left;verticalAlign=top;spacingLeft=4;spacingRight=4;overflow=hidden;rotatable=0;points=[[0,0.5],[1,0.5]];portConstraint=eastwest;whiteSpace=wrap;html=1;labelBackgroundColor=none;rounded=1;" vertex="1" parent="lx2HsS64MiJVuqDDAC6C-73">
          <mxGeometry y="52" width="200" height="26" as="geometry" />
        </mxCell>
        <mxCell id="lx2HsS64MiJVuqDDAC6C-76" value="&lt;div&gt;&lt;span class=&quot;text-sm px-1 rounded-sm !font-mono bg-sunset/10 text-rust dark:bg-dawn/10 dark:text-dawn&quot;&gt;amount&lt;/span&gt;&lt;/div&gt;" style="text;strokeColor=none;fillColor=none;align=left;verticalAlign=top;spacingLeft=4;spacingRight=4;overflow=hidden;rotatable=0;points=[[0,0.5],[1,0.5]];portConstraint=eastwest;whiteSpace=wrap;html=1;labelBackgroundColor=none;rounded=1;" vertex="1" parent="lx2HsS64MiJVuqDDAC6C-73">
          <mxGeometry y="78" width="200" height="32" as="geometry" />
        </mxCell>
        <mxCell id="lx2HsS64MiJVuqDDAC6C-77" value="&lt;div&gt;&lt;span class=&quot;text-sm px-1 rounded-sm !font-mono bg-sunset/10 text-rust dark:bg-dawn/10 dark:text-dawn&quot;&gt;method&lt;/span&gt;&lt;/div&gt;" style="text;strokeColor=none;fillColor=none;align=left;verticalAlign=top;spacingLeft=4;spacingRight=4;overflow=hidden;rotatable=0;points=[[0,0.5],[1,0.5]];portConstraint=eastwest;whiteSpace=wrap;html=1;labelBackgroundColor=none;rounded=1;" vertex="1" parent="lx2HsS64MiJVuqDDAC6C-73">
          <mxGeometry y="110" width="200" height="26" as="geometry" />
        </mxCell>
        <mxCell id="lx2HsS64MiJVuqDDAC6C-78" value="&lt;div&gt;&lt;span class=&quot;text-sm px-1 rounded-sm !font-mono bg-sunset/10 text-rust dark:bg-dawn/10 dark:text-dawn&quot;&gt;status&lt;/span&gt;&lt;/div&gt;" style="text;strokeColor=none;fillColor=none;align=left;verticalAlign=top;spacingLeft=4;spacingRight=4;overflow=hidden;rotatable=0;points=[[0,0.5],[1,0.5]];portConstraint=eastwest;whiteSpace=wrap;html=1;labelBackgroundColor=none;rounded=1;" vertex="1" parent="lx2HsS64MiJVuqDDAC6C-73">
          <mxGeometry y="136" width="200" height="26" as="geometry" />
        </mxCell>
        <mxCell id="lx2HsS64MiJVuqDDAC6C-79" value="&lt;div&gt;&lt;span class=&quot;text-sm px-1 rounded-sm !font-mono bg-sunset/10 text-rust dark:bg-dawn/10 dark:text-dawn&quot;&gt;paid_at&lt;/span&gt;&lt;/div&gt;" style="text;strokeColor=none;fillColor=none;align=left;verticalAlign=top;spacingLeft=4;spacingRight=4;overflow=hidden;rotatable=0;points=[[0,0.5],[1,0.5]];portConstraint=eastwest;whiteSpace=wrap;html=1;labelBackgroundColor=none;rounded=1;" vertex="1" parent="lx2HsS64MiJVuqDDAC6C-73">
          <mxGeometry y="162" width="200" height="26" as="geometry" />
        </mxCell>
        <mxCell id="lx2HsS64MiJVuqDDAC6C-80" value="&lt;div&gt;Notifications&lt;/div&gt;" style="swimlane;fontStyle=0;childLayout=stackLayout;horizontal=1;startSize=26;fillColor=none;horizontalStack=0;resizeParent=1;resizeParentMax=0;resizeLast=0;collapsible=1;marginBottom=0;whiteSpace=wrap;html=1;labelBackgroundColor=none;rounded=1;" vertex="1" parent="1">
          <mxGeometry x="600" y="550" width="200" height="188" as="geometry" />
        </mxCell>
        <mxCell id="lx2HsS64MiJVuqDDAC6C-81" value="&lt;div&gt;&lt;span class=&quot;text-sm px-1 rounded-sm !font-mono bg-sunset/10 text-rust dark:bg-dawn/10 dark:text-dawn&quot;&gt;notification_id&lt;/span&gt;&lt;/div&gt;" style="text;strokeColor=none;fillColor=none;align=left;verticalAlign=top;spacingLeft=4;spacingRight=4;overflow=hidden;rotatable=0;points=[[0,0.5],[1,0.5]];portConstraint=eastwest;whiteSpace=wrap;html=1;labelBackgroundColor=none;rounded=1;" vertex="1" parent="lx2HsS64MiJVuqDDAC6C-80">
          <mxGeometry y="26" width="200" height="26" as="geometry" />
        </mxCell>
        <mxCell id="lx2HsS64MiJVuqDDAC6C-82" value="&lt;div&gt;&lt;span class=&quot;text-sm px-1 rounded-sm !font-mono bg-sunset/10 text-rust dark:bg-dawn/10 dark:text-dawn&quot;&gt;user_id&lt;/span&gt;&lt;/div&gt;" style="text;strokeColor=none;fillColor=none;align=left;verticalAlign=top;spacingLeft=4;spacingRight=4;overflow=hidden;rotatable=0;points=[[0,0.5],[1,0.5]];portConstraint=eastwest;whiteSpace=wrap;html=1;labelBackgroundColor=none;rounded=1;" vertex="1" parent="lx2HsS64MiJVuqDDAC6C-80">
          <mxGeometry y="52" width="200" height="26" as="geometry" />
        </mxCell>
        <mxCell id="lx2HsS64MiJVuqDDAC6C-83" value="&lt;div&gt;&lt;span class=&quot;text-sm px-1 rounded-sm !font-mono bg-sunset/10 text-rust dark:bg-dawn/10 dark:text-dawn&quot;&gt;order_id&lt;/span&gt;&lt;/div&gt;" style="text;strokeColor=none;fillColor=none;align=left;verticalAlign=top;spacingLeft=4;spacingRight=4;overflow=hidden;rotatable=0;points=[[0,0.5],[1,0.5]];portConstraint=eastwest;whiteSpace=wrap;html=1;labelBackgroundColor=none;rounded=1;" vertex="1" parent="lx2HsS64MiJVuqDDAC6C-80">
          <mxGeometry y="78" width="200" height="32" as="geometry" />
        </mxCell>
        <mxCell id="lx2HsS64MiJVuqDDAC6C-84" value="&lt;div&gt;&lt;span class=&quot;text-sm px-1 rounded-sm !font-mono bg-sunset/10 text-rust dark:bg-dawn/10 dark:text-dawn&quot;&gt;message&lt;/span&gt;&lt;/div&gt;" style="text;strokeColor=none;fillColor=none;align=left;verticalAlign=top;spacingLeft=4;spacingRight=4;overflow=hidden;rotatable=0;points=[[0,0.5],[1,0.5]];portConstraint=eastwest;whiteSpace=wrap;html=1;labelBackgroundColor=none;rounded=1;" vertex="1" parent="lx2HsS64MiJVuqDDAC6C-80">
          <mxGeometry y="110" width="200" height="26" as="geometry" />
        </mxCell>
        <mxCell id="lx2HsS64MiJVuqDDAC6C-85" value="&lt;div&gt;&lt;span class=&quot;text-sm px-1 rounded-sm !font-mono bg-sunset/10 text-rust dark:bg-dawn/10 dark:text-dawn&quot;&gt;type&lt;/span&gt;&lt;/div&gt;" style="text;strokeColor=none;fillColor=none;align=left;verticalAlign=top;spacingLeft=4;spacingRight=4;overflow=hidden;rotatable=0;points=[[0,0.5],[1,0.5]];portConstraint=eastwest;whiteSpace=wrap;html=1;labelBackgroundColor=none;rounded=1;" vertex="1" parent="lx2HsS64MiJVuqDDAC6C-80">
          <mxGeometry y="136" width="200" height="26" as="geometry" />
        </mxCell>
        <mxCell id="lx2HsS64MiJVuqDDAC6C-86" value="&lt;div&gt;&lt;span class=&quot;text-sm px-1 rounded-sm !font-mono bg-sunset/10 text-rust dark:bg-dawn/10 dark:text-dawn&quot;&gt;sent_at&lt;/span&gt;&lt;/div&gt;" style="text;strokeColor=none;fillColor=none;align=left;verticalAlign=top;spacingLeft=4;spacingRight=4;overflow=hidden;rotatable=0;points=[[0,0.5],[1,0.5]];portConstraint=eastwest;whiteSpace=wrap;html=1;labelBackgroundColor=none;rounded=1;" vertex="1" parent="lx2HsS64MiJVuqDDAC6C-80">
          <mxGeometry y="162" width="200" height="26" as="geometry" />
        </mxCell>
        <mxCell id="lx2HsS64MiJVuqDDAC6C-87" value="Trackings" style="swimlane;fontStyle=0;childLayout=stackLayout;horizontal=1;startSize=26;fillColor=none;horizontalStack=0;resizeParent=1;resizeParentMax=0;resizeLast=0;collapsible=1;marginBottom=0;whiteSpace=wrap;html=1;labelBackgroundColor=none;rounded=1;" vertex="1" parent="1">
          <mxGeometry x="600" y="760" width="200" height="214" as="geometry" />
        </mxCell>
        <mxCell id="lx2HsS64MiJVuqDDAC6C-88" value="&lt;div&gt;&lt;span class=&quot;text-sm px-1 rounded-sm !font-mono bg-sunset/10 text-rust dark:bg-dawn/10 dark:text-dawn&quot;&gt;tracking_id&lt;/span&gt;&lt;/div&gt;" style="text;strokeColor=none;fillColor=none;align=left;verticalAlign=top;spacingLeft=4;spacingRight=4;overflow=hidden;rotatable=0;points=[[0,0.5],[1,0.5]];portConstraint=eastwest;whiteSpace=wrap;html=1;labelBackgroundColor=none;rounded=1;" vertex="1" parent="lx2HsS64MiJVuqDDAC6C-87">
          <mxGeometry y="26" width="200" height="26" as="geometry" />
        </mxCell>
        <mxCell id="lx2HsS64MiJVuqDDAC6C-89" value="&lt;div&gt;&lt;span class=&quot;text-sm px-1 rounded-sm !font-mono bg-sunset/10 text-rust dark:bg-dawn/10 dark:text-dawn&quot;&gt;order_id&lt;/span&gt;&lt;/div&gt;" style="text;strokeColor=none;fillColor=none;align=left;verticalAlign=top;spacingLeft=4;spacingRight=4;overflow=hidden;rotatable=0;points=[[0,0.5],[1,0.5]];portConstraint=eastwest;whiteSpace=wrap;html=1;labelBackgroundColor=none;rounded=1;" vertex="1" parent="lx2HsS64MiJVuqDDAC6C-87">
          <mxGeometry y="52" width="200" height="26" as="geometry" />
        </mxCell>
        <mxCell id="lx2HsS64MiJVuqDDAC6C-90" value="&lt;div&gt;&lt;span class=&quot;text-sm px-1 rounded-sm !font-mono bg-sunset/10 text-rust dark:bg-dawn/10 dark:text-dawn&quot;&gt;shipper_id&lt;/span&gt;&lt;/div&gt;" style="text;strokeColor=none;fillColor=none;align=left;verticalAlign=top;spacingLeft=4;spacingRight=4;overflow=hidden;rotatable=0;points=[[0,0.5],[1,0.5]];portConstraint=eastwest;whiteSpace=wrap;html=1;labelBackgroundColor=none;rounded=1;" vertex="1" parent="lx2HsS64MiJVuqDDAC6C-87">
          <mxGeometry y="78" width="200" height="32" as="geometry" />
        </mxCell>
        <mxCell id="lx2HsS64MiJVuqDDAC6C-91" value="&lt;div&gt;&lt;span class=&quot;text-sm px-1 rounded-sm !font-mono bg-sunset/10 text-rust dark:bg-dawn/10 dark:text-dawn&quot;&gt;status&lt;/span&gt;&lt;/div&gt;" style="text;strokeColor=none;fillColor=none;align=left;verticalAlign=top;spacingLeft=4;spacingRight=4;overflow=hidden;rotatable=0;points=[[0,0.5],[1,0.5]];portConstraint=eastwest;whiteSpace=wrap;html=1;labelBackgroundColor=none;rounded=1;" vertex="1" parent="lx2HsS64MiJVuqDDAC6C-87">
          <mxGeometry y="110" width="200" height="26" as="geometry" />
        </mxCell>
        <mxCell id="lx2HsS64MiJVuqDDAC6C-92" value="&lt;div&gt;&lt;span class=&quot;text-sm px-1 rounded-sm !font-mono bg-sunset/10 text-rust dark:bg-dawn/10 dark:text-dawn&quot;&gt;location&lt;/span&gt;&lt;/div&gt;" style="text;strokeColor=none;fillColor=none;align=left;verticalAlign=top;spacingLeft=4;spacingRight=4;overflow=hidden;rotatable=0;points=[[0,0.5],[1,0.5]];portConstraint=eastwest;whiteSpace=wrap;html=1;labelBackgroundColor=none;rounded=1;" vertex="1" parent="lx2HsS64MiJVuqDDAC6C-87">
          <mxGeometry y="136" width="200" height="26" as="geometry" />
        </mxCell>
        <mxCell id="lx2HsS64MiJVuqDDAC6C-93" value="&lt;div&gt;&lt;span class=&quot;text-sm px-1 rounded-sm !font-mono bg-sunset/10 text-rust dark:bg-dawn/10 dark:text-dawn&quot;&gt;timestamp&lt;/span&gt;&lt;/div&gt;" style="text;strokeColor=none;fillColor=none;align=left;verticalAlign=top;spacingLeft=4;spacingRight=4;overflow=hidden;rotatable=0;points=[[0,0.5],[1,0.5]];portConstraint=eastwest;whiteSpace=wrap;html=1;labelBackgroundColor=none;rounded=1;" vertex="1" parent="lx2HsS64MiJVuqDDAC6C-87">
          <mxGeometry y="162" width="200" height="26" as="geometry" />
        </mxCell>
        <mxCell id="lx2HsS64MiJVuqDDAC6C-94" value="&lt;div&gt;&lt;span class=&quot;text-sm px-1 rounded-sm !font-mono bg-sunset/10 text-rust dark:bg-dawn/10 dark:text-dawn&quot;&gt;smart_suggestion&lt;/span&gt;&lt;/div&gt;" style="text;strokeColor=none;fillColor=none;align=left;verticalAlign=top;spacingLeft=4;spacingRight=4;overflow=hidden;rotatable=0;points=[[0,0.5],[1,0.5]];portConstraint=eastwest;whiteSpace=wrap;html=1;labelBackgroundColor=none;rounded=1;" vertex="1" parent="lx2HsS64MiJVuqDDAC6C-87">
          <mxGeometry y="188" width="200" height="26" as="geometry" />
        </mxCell>
        <mxCell id="lx2HsS64MiJVuqDDAC6C-95" value="Ratings" style="swimlane;fontStyle=0;childLayout=stackLayout;horizontal=1;startSize=26;fillColor=none;horizontalStack=0;resizeParent=1;resizeParentMax=0;resizeLast=0;collapsible=1;marginBottom=0;whiteSpace=wrap;html=1;labelBackgroundColor=none;rounded=1;" vertex="1" parent="1">
          <mxGeometry x="90" y="930" width="200" height="214" as="geometry" />
        </mxCell>
        <mxCell id="lx2HsS64MiJVuqDDAC6C-96" value="&lt;div&gt;&lt;span class=&quot;text-sm px-1 rounded-sm !font-mono bg-sunset/10 text-rust dark:bg-dawn/10 dark:text-dawn&quot;&gt;rating_id&lt;/span&gt;&lt;/div&gt;" style="text;strokeColor=none;fillColor=none;align=left;verticalAlign=top;spacingLeft=4;spacingRight=4;overflow=hidden;rotatable=0;points=[[0,0.5],[1,0.5]];portConstraint=eastwest;whiteSpace=wrap;html=1;labelBackgroundColor=none;rounded=1;" vertex="1" parent="lx2HsS64MiJVuqDDAC6C-95">
          <mxGeometry y="26" width="200" height="26" as="geometry" />
        </mxCell>
        <mxCell id="lx2HsS64MiJVuqDDAC6C-97" value="&lt;div&gt;&lt;span class=&quot;text-sm px-1 rounded-sm !font-mono bg-sunset/10 text-rust dark:bg-dawn/10 dark:text-dawn&quot;&gt;order_id&lt;/span&gt;&lt;/div&gt;" style="text;strokeColor=none;fillColor=none;align=left;verticalAlign=top;spacingLeft=4;spacingRight=4;overflow=hidden;rotatable=0;points=[[0,0.5],[1,0.5]];portConstraint=eastwest;whiteSpace=wrap;html=1;labelBackgroundColor=none;rounded=1;" vertex="1" parent="lx2HsS64MiJVuqDDAC6C-95">
          <mxGeometry y="52" width="200" height="26" as="geometry" />
        </mxCell>
        <mxCell id="lx2HsS64MiJVuqDDAC6C-98" value="&lt;div&gt;&lt;span class=&quot;text-sm px-1 rounded-sm !font-mono bg-sunset/10 text-rust dark:bg-dawn/10 dark:text-dawn&quot;&gt;shipper_id&lt;/span&gt;&lt;/div&gt;" style="text;strokeColor=none;fillColor=none;align=left;verticalAlign=top;spacingLeft=4;spacingRight=4;overflow=hidden;rotatable=0;points=[[0,0.5],[1,0.5]];portConstraint=eastwest;whiteSpace=wrap;html=1;labelBackgroundColor=none;rounded=1;" vertex="1" parent="lx2HsS64MiJVuqDDAC6C-95">
          <mxGeometry y="78" width="200" height="32" as="geometry" />
        </mxCell>
        <mxCell id="lx2HsS64MiJVuqDDAC6C-99" value="&lt;div&gt;&lt;span class=&quot;text-sm px-1 rounded-sm !font-mono bg-sunset/10 text-rust dark:bg-dawn/10 dark:text-dawn&quot;&gt;customer_id&lt;/span&gt;&lt;/div&gt;" style="text;strokeColor=none;fillColor=none;align=left;verticalAlign=top;spacingLeft=4;spacingRight=4;overflow=hidden;rotatable=0;points=[[0,0.5],[1,0.5]];portConstraint=eastwest;whiteSpace=wrap;html=1;labelBackgroundColor=none;rounded=1;" vertex="1" parent="lx2HsS64MiJVuqDDAC6C-95">
          <mxGeometry y="110" width="200" height="26" as="geometry" />
        </mxCell>
        <mxCell id="lx2HsS64MiJVuqDDAC6C-100" value="&lt;div&gt;&lt;span class=&quot;text-sm px-1 rounded-sm !font-mono bg-sunset/10 text-rust dark:bg-dawn/10 dark:text-dawn&quot;&gt;score&lt;/span&gt;&lt;/div&gt;" style="text;strokeColor=none;fillColor=none;align=left;verticalAlign=top;spacingLeft=4;spacingRight=4;overflow=hidden;rotatable=0;points=[[0,0.5],[1,0.5]];portConstraint=eastwest;whiteSpace=wrap;html=1;labelBackgroundColor=none;rounded=1;" vertex="1" parent="lx2HsS64MiJVuqDDAC6C-95">
          <mxGeometry y="136" width="200" height="26" as="geometry" />
        </mxCell>
        <mxCell id="lx2HsS64MiJVuqDDAC6C-101" value="&lt;div&gt;&lt;span class=&quot;text-sm px-1 rounded-sm !font-mono bg-sunset/10 text-rust dark:bg-dawn/10 dark:text-dawn&quot;&gt;comment&lt;/span&gt;&lt;/div&gt;" style="text;strokeColor=none;fillColor=none;align=left;verticalAlign=top;spacingLeft=4;spacingRight=4;overflow=hidden;rotatable=0;points=[[0,0.5],[1,0.5]];portConstraint=eastwest;whiteSpace=wrap;html=1;labelBackgroundColor=none;rounded=1;" vertex="1" parent="lx2HsS64MiJVuqDDAC6C-95">
          <mxGeometry y="162" width="200" height="26" as="geometry" />
        </mxCell>
        <mxCell id="lx2HsS64MiJVuqDDAC6C-102" value="&lt;div&gt;&lt;span class=&quot;text-sm px-1 rounded-sm !font-mono bg-sunset/10 text-rust dark:bg-dawn/10 dark:text-dawn&quot;&gt;created_at&lt;/span&gt;&lt;/div&gt;" style="text;strokeColor=none;fillColor=none;align=left;verticalAlign=top;spacingLeft=4;spacingRight=4;overflow=hidden;rotatable=0;points=[[0,0.5],[1,0.5]];portConstraint=eastwest;whiteSpace=wrap;html=1;labelBackgroundColor=none;rounded=1;" vertex="1" parent="lx2HsS64MiJVuqDDAC6C-95">
          <mxGeometry y="188" width="200" height="26" as="geometry" />
        </mxCell>
      </root>
    </mxGraphModel>
  </diagram>
</mxfile>
